 <svg  version="1.0" xmlns="http://www.w3.org/2000/svg"  width="624.000000pt" height="624.000000pt" viewBox="0 0 624.000000 624.000000"  preserveAspectRatio="xMidYMid meet">  <g transform="translate(0.000000,624.000000) scale(0.100000,-0.100000)" fill="#1a3a61" stroke="none"> <path d="M4540 6225 c0 -8 -11 -17 -25 -21 -15 -4 -174 -158 -393 -379 l-368 -374 -60 51 c-32 27 -86 73 -118 101 -33 29 -80 67 -105 86 -25 19 -69 54 -97 78 -28 24 -56 43 -61 43 -6 0 -16 7 -24 16 -11 14 -74 59 -147 106 -15 10 -49 29 -77 43 -27 14 -57 29 -65 34 -52 28 -68 34 -117 47 -137 36 -231 3 -362 -127 -150 -149 -941 -956 -1028 -1048 -97 -103 -153 -176 -153 -200 0 -9 -7 -34 -15 -56 -8 -22 -14 -65 -15 -95 0 -30 -5 -71 -10 -90 -6 -19 -15 -64 -20 -100 -5 -36 -14 -92 -20 -125 -20 -105 -38 -207 -55 -310 -16 -98 -31 -184 -56 -315 -7 -36 -14 -78 -16 -95 -2 -16 -10 -64 -18 -105 -7 -41 -21 -120 -30 -175 -9 -55 -23 -132 -31 -172 l-16 -72 34 -63 c18 -35 36 -67 41 -73 4 -5 42 -56 84 -113 l76 -103 -90 -92 c-126 -129 -135 -140 -170 -210 -65 -129 -68 -143 -68 -272 0 -127 10 -168 61 -266 13 -26 24 -52 24 -59 0 -6 -227 -239 -505 -517 -278 -277 -505 -508 -505 -511 0 -8 662 -672 670 -672 3 0 236 231 518 512 l512 513 32 -16 c178 -88 348 -91 522 -10 54 26 94 57 188 148 l119 116 32 -30 c42 -38 153 -123 162 -123 4 0 24 -13 44 -28 64 -51 149 -85 190 -77 20 4 56 10 81 14 25 5 73 13 108 19 34 7 90 17 125 24 34 6 82 14 107 18 25 4 74 12 110 19 147 27 187 34 230 41 25 4 74 12 110 19 36 7 99 19 140 26 41 7 104 19 140 26 36 7 90 15 120 19 30 4 82 12 115 18 158 31 228 42 259 42 85 0 120 31 740 648 566 565 590 590 624 662 53 110 50 205 -8 321 -21 41 -63 117 -81 144 -10 17 -23 39 -29 50 -60 116 -282 395 -315 395 -8 0 -37 -30 -64 -67 -28 -38 -55 -73 -60 -79 -4 -6 -26 -35 -47 -65 -21 -30 -49 -65 -61 -78 -12 -13 -29 -38 -39 -56 l-16 -31 74 -100 c87 -116 138 -192 138 -203 0 -5 7 -14 15 -21 8 -7 15 -20 15 -29 0 -16 -948 -971 -964 -971 -5 0 -31 17 -59 37 -28 21 -59 43 -68 48 -9 6 -41 29 -70 53 -30 23 -58 46 -64 50 -75 56 -185 145 -214 173 -9 8 -36 30 -61 49 -25 19 -52 41 -61 49 -14 15 -68 63 -208 185 -31 27 -85 77 -121 111 -36 34 -87 81 -115 105 -189 161 -879 849 -1054 1050 -40 47 -97 110 -125 140 -28 30 -69 78 -91 105 -22 28 -54 66 -72 85 -58 64 -283 354 -283 366 0 3 -14 24 -31 45 -19 25 -29 47 -27 63 2 17 77 101 228 253 124 126 341 347 483 492 257 262 258 263 288 252 17 -6 54 -28 82 -48 28 -21 61 -45 73 -53 84 -57 404 -318 404 -329 0 -4 -95 -104 -210 -222 -116 -117 -225 -234 -242 -259 -29 -41 -31 -52 -32 -126 -1 -76 1 -84 33 -131 71 -105 193 -138 307 -83 29 14 187 168 510 498 258 262 574 585 704 716 329 336 319 326 348 369 23 35 27 51 27 116 0 61 -5 83 -23 112 -30 50 -72 90 -104 101 -16 6 -28 16 -28 24 0 11 -18 14 -80 14 -64 0 -80 -3 -80 -15z"/> <path d="M4112 4787 l-164 -163 416 -416 c229 -228 416 -420 416 -425 0 -6 -104 -114 -231 -239 -127 -126 -239 -242 -249 -259 -10 -16 -24 -52 -31 -79 -23 -92 27 -201 119 -258 31 -19 50 -23 117 -22 73 1 84 3 125 32 25 17 183 168 351 334 169 167 510 503 757 747 248 244 456 457 463 472 6 16 18 29 25 29 11 0 14 19 14 80 0 62 -3 80 -14 80 -8 0 -18 12 -24 28 -11 32 -51 74 -101 104 -53 33 -170 32 -226 -2 -22 -13 -157 -139 -300 -280 -143 -140 -301 -295 -351 -343 l-90 -87 -420 415 c-230 228 -423 415 -428 415 -6 0 -84 -73 -174 -163z"/> </g> </svg> 