 <svg  version="1.0" xmlns="http://www.w3.org/2000/svg"  width="900.000000pt" height="900.000000pt" viewBox="0 0 900.000000 900.000000"  preserveAspectRatio="xMidYMid meet">  <g transform="translate(0.000000,900.000000) scale(0.100000,-0.100000)" fill="#1a3a61" stroke="none"> <path d="M3763 8060 c-116 -57 -173 -154 -173 -295 0 -150 -51 -369 -129 -551 -91 -214 -231 -448 -442 -738 -118 -163 -134 -184 -194 -262 -81 -104 -111 -144 -132 -174 -10 -14 -49 -66 -88 -117 -38 -50 -87 -115 -108 -145 -21 -29 -68 -93 -104 -141 -212 -288 -396 -587 -537 -872 -111 -223 -117 -240 -198 -480 -63 -191 -72 -222 -93 -325 -9 -47 -21 -105 -26 -129 -47 -211 -62 -607 -34 -841 28 -224 87 -472 145 -605 46 -108 84 -189 100 -215 5 -8 31 -51 57 -95 113 -192 321 -424 508 -567 72 -55 221 -153 290 -190 87 -48 255 -128 268 -128 7 0 17 -4 23 -10 14 -14 231 -92 349 -125 128 -37 152 -43 220 -58 242 -54 697 -111 773 -97 20 4 29 8 20 9 -29 2 -228 71 -281 97 -153 77 -286 178 -392 300 -240 275 -334 621 -280 1027 18 137 71 387 95 451 4 12 15 48 25 81 24 83 47 147 111 303 44 106 60 115 94 51 50 -97 170 -266 250 -353 48 -52 145 -124 205 -152 236 -111 457 158 569 691 46 220 63 328 90 580 17 151 45 557 49 694 1 47 7 86 12 87 6 1 39 -36 75 -82 36 -47 70 -90 75 -97 16 -18 135 -198 135 -203 0 -2 11 -22 25 -44 49 -77 135 -243 189 -365 15 -33 32 -69 38 -79 6 -11 14 -31 18 -45 5 -14 18 -51 30 -81 56 -145 78 -211 136 -410 12 -42 23 -87 58 -240 61 -271 106 -684 106 -973 0 -338 -84 -585 -278 -820 -134 -162 -339 -307 -512 -362 -30 -10 -69 -24 -86 -31 -18 -7 -49 -16 -70 -20 l-39 -8 37 -6 c100 -18 661 62 888 125 174 49 230 67 330 105 30 12 69 26 87 31 18 5 35 14 38 19 4 6 13 10 21 10 14 0 178 78 269 128 69 37 218 135 290 190 185 141 397 377 508 567 26 44 52 87 57 95 16 26 67 135 100 215 59 142 121 400 145 610 38 325 0 789 -90 1115 -7 25 -21 74 -30 110 -41 147 -115 356 -180 505 -25 58 -175 361 -211 425 -53 97 -132 227 -181 298 -24 35 -43 65 -43 67 0 16 -294 413 -389 526 -31 36 -65 77 -77 92 -68 88 -300 336 -494 530 -266 264 -513 486 -783 703 -53 44 -477 364 -507 384 -13 8 -48 33 -79 56 -128 92 -379 251 -421 267 -72 27 -154 22 -227 -13z"/> </g> </svg> 