 <svg  version="1.0" xmlns="http://www.w3.org/2000/svg"  width="675.000000pt" height="675.000000pt" viewBox="0 0 675.000000 675.000000"  preserveAspectRatio="xMidYMid meet">  <g transform="translate(0.000000,675.000000) scale(0.100000,-0.100000)" fill="#ffffff" stroke="none"> <path d="M3398 6423 c-2 -214 1 -331 7 -340 8 -10 50 -17 150 -24 77 -6 176 -17 220 -25 44 -8 97 -14 117 -14 20 0 49 -5 65 -11 15 -7 46 -15 68 -19 22 -4 54 -12 70 -18 17 -6 55 -18 85 -27 75 -23 178 -62 265 -100 61 -27 155 -73 175 -85 8 -5 22 -11 30 -15 18 -7 36 -18 115 -70 71 -47 95 -62 115 -71 8 -4 78 -58 155 -119 135 -109 298 -267 380 -370 22 -27 45 -54 51 -60 22 -21 74 -93 74 -104 0 -6 4 -11 8 -11 8 0 121 -167 156 -230 11 -19 30 -53 42 -75 43 -78 179 -356 179 -368 0 -10 -101 -47 -128 -47 -11 0 -40 -7 -66 -15 -25 -8 -75 -21 -111 -30 -36 -9 -85 -23 -110 -31 -25 -8 -53 -14 -64 -14 -10 0 -39 -7 -65 -15 -25 -8 -71 -21 -101 -28 -30 -8 -75 -20 -100 -26 -25 -7 -63 -16 -85 -20 -22 -5 -53 -13 -68 -20 -16 -6 -40 -11 -55 -11 -15 0 -38 -9 -52 -19 l-24 -19 69 -65 c39 -35 122 -111 185 -168 63 -56 127 -114 141 -128 15 -15 37 -35 50 -46 59 -51 226 -201 250 -224 14 -14 61 -57 104 -96 128 -114 198 -177 226 -205 14 -14 61 -56 104 -95 91 -81 185 -166 235 -212 42 -39 80 -73 185 -166 44 -39 93 -84 109 -99 37 -37 59 -33 66 12 4 19 12 45 18 57 7 12 12 45 12 72 0 28 6 77 14 109 21 81 45 242 52 345 4 62 10 90 20 94 21 8 21 448 0 456 -10 4 -16 33 -20 104 -7 101 -26 229 -52 343 -8 36 -14 76 -14 90 -1 14 -7 36 -15 50 -8 14 -14 37 -15 52 0 15 -6 42 -14 60 -8 18 -22 60 -31 93 -22 74 -42 131 -61 168 -8 16 -14 35 -14 42 0 7 -6 26 -14 42 -8 15 -22 46 -32 68 -9 22 -21 47 -26 55 -4 8 -11 22 -14 30 -3 8 -10 22 -15 30 -5 8 -12 22 -15 30 -3 8 -9 22 -14 30 -5 8 -19 35 -31 60 -60 119 -174 296 -293 455 -179 238 -425 479 -691 676 -66 48 -89 63 -122 78 -13 6 -23 15 -23 20 0 5 -8 11 -17 15 -10 3 -31 15 -48 26 -16 11 -39 24 -50 30 -11 6 -36 20 -55 31 -75 46 -350 179 -369 179 -5 0 -22 6 -38 14 -58 28 -99 45 -123 49 -22 5 -122 36 -215 69 -16 5 -51 14 -77 18 -26 5 -56 13 -67 19 -11 6 -31 11 -45 11 -15 0 -52 6 -84 14 -101 26 -215 45 -307 53 -63 6 -89 12 -87 21 1 9 -27 12 -113 12 l-114 0 -3 -327z"/> <path d="M2839 5072 c-20 -10 -51 -29 -70 -43 -42 -33 -1049 -1039 -1095 -1095 -19 -23 -34 -48 -34 -56 0 -8 -7 -23 -15 -34 -21 -28 -18 -101 6 -151 15 -31 298 -320 994 -1016 535 -534 986 -980 1003 -989 40 -23 134 -23 189 0 33 13 172 147 611 587 376 377 574 583 585 608 26 59 23 158 -7 205 -33 50 -1953 1963 -1993 1985 -40 22 -126 21 -174 -1z m1244 -2049 c60 -19 134 -85 170 -152 22 -42 27 -63 27 -126 0 -111 -43 -179 -152 -239 -41 -23 -58 -26 -142 -26 -112 0 -154 17 -226 90 -104 107 -96 265 19 381 43 43 69 59 111 72 96 29 101 28 193 0z"/> <path d="M117 4283 c-4 -3 -7 -18 -7 -32 -1 -14 -7 -37 -15 -51 -8 -14 -14 -49 -15 -78 0 -29 -6 -78 -14 -110 -41 -160 -66 -418 -66 -667 0 -262 21 -479 65 -675 9 -36 15 -76 15 -90 1 -14 7 -36 15 -50 8 -14 14 -37 15 -52 0 -15 6 -42 14 -60 8 -18 22 -60 31 -93 22 -74 42 -131 61 -168 8 -16 14 -35 14 -42 0 -7 6 -26 14 -42 8 -15 22 -46 32 -68 9 -22 21 -47 26 -55 4 -8 11 -22 14 -30 3 -8 10 -22 15 -30 5 -8 12 -22 15 -30 3 -8 9 -22 14 -30 5 -8 19 -35 31 -60 60 -119 174 -296 293 -455 179 -238 425 -479 691 -676 66 -48 89 -63 123 -78 12 -6 22 -15 22 -20 0 -5 8 -11 18 -15 9 -3 31 -15 47 -26 17 -11 39 -24 50 -30 11 -6 47 -26 80 -45 107 -59 326 -165 344 -165 5 0 22 -6 38 -14 58 -28 99 -45 123 -49 22 -5 122 -36 215 -69 17 -5 51 -14 77 -18 26 -5 56 -13 67 -19 11 -6 33 -11 49 -11 15 0 48 -6 73 -14 111 -35 336 -66 477 -66 l79 0 7 243 c4 133 11 276 15 317 6 54 5 79 -4 88 -7 8 -58 17 -131 23 -65 5 -155 16 -199 24 -44 9 -94 15 -112 15 -17 0 -44 5 -60 11 -15 7 -46 15 -68 19 -22 4 -53 12 -70 18 -16 6 -55 18 -85 27 -30 9 -73 23 -95 32 -103 39 -123 48 -172 70 -64 28 -152 71 -173 83 -8 5 -22 11 -30 15 -20 8 -42 22 -115 71 -34 22 -67 43 -75 48 -47 23 -49 24 -234 172 -102 82 -267 246 -341 339 -22 28 -45 55 -51 60 -21 20 -74 93 -74 103 0 6 -4 12 -9 14 -10 3 -157 220 -172 253 -5 11 -13 27 -18 35 -5 8 -12 22 -15 30 -4 8 -15 29 -25 47 -28 46 -106 237 -118 290 -4 18 2 25 33 39 22 9 55 20 74 24 19 5 50 13 68 19 17 6 47 16 65 22 17 6 48 14 67 18 19 4 45 13 57 19 12 7 35 12 50 12 16 0 33 4 38 9 6 6 28 14 50 20 22 6 63 17 90 25 28 9 70 21 95 27 25 6 60 18 78 25 18 8 42 14 53 14 11 0 32 6 47 14 15 7 44 16 65 20 24 5 37 12 37 22 0 14 -42 59 -112 119 -61 54 -219 195 -268 241 -30 28 -107 98 -170 154 -63 57 -124 113 -135 124 -11 12 -77 70 -145 131 -69 60 -139 123 -156 140 -17 16 -66 62 -109 100 -123 109 -198 177 -226 205 -14 14 -77 70 -139 125 -63 55 -132 117 -153 138 -38 36 -57 44 -70 30z"/> </g> </svg> 