 <svg  version="1.0" xmlns="http://www.w3.org/2000/svg"  width="624.000000pt" height="624.000000pt" viewBox="0 0 624.000000 624.000000"  preserveAspectRatio="xMidYMid meet">  <g transform="translate(0.000000,624.000000) scale(0.100000,-0.100000)" fill="#3dc2ff" stroke="none"> <path d="M2813 5930 c-61 -4 -116 -11 -122 -14 -5 -4 -40 -11 -78 -16 -37 -5 -88 -14 -113 -21 -163 -40 -359 -98 -398 -118 -9 -5 -37 -17 -62 -26 -43 -16 -155 -66 -193 -86 -10 -6 -53 -28 -95 -50 -92 -48 -309 -188 -344 -222 -7 -7 -42 -35 -78 -62 -88 -66 -214 -186 -335 -316 -122 -132 -316 -412 -394 -569 -12 -25 -26 -52 -31 -60 -13 -23 -65 -139 -85 -190 -10 -25 -23 -58 -30 -75 -15 -36 -34 -90 -45 -130 -5 -16 -18 -61 -30 -100 -11 -38 -24 -90 -29 -115 -5 -25 -13 -65 -19 -90 -40 -167 -46 -243 -46 -560 0 -324 3 -355 50 -580 28 -134 64 -267 90 -328 8 -18 14 -39 14 -47 0 -7 6 -26 14 -42 8 -15 22 -48 32 -73 38 -100 166 -349 225 -438 16 -24 29 -45 29 -48 0 -4 78 -111 108 -149 4 -5 25 -32 45 -60 94 -124 328 -358 452 -452 28 -20 55 -41 60 -45 42 -34 145 -108 150 -108 4 0 21 -11 38 -24 71 -52 453 -246 486 -246 5 0 22 -6 38 -14 59 -29 384 -121 468 -133 17 -2 68 -11 115 -21 124 -24 696 -24 820 0 47 10 99 19 115 21 84 12 409 104 468 133 16 8 33 14 38 14 33 0 415 194 486 246 17 13 34 24 38 24 9 0 273 202 319 244 162 147 266 261 392 428 57 76 104 139 104 142 0 3 13 24 29 48 59 89 187 338 225 438 10 25 24 58 32 73 8 16 14 35 14 42 0 8 6 29 14 47 38 91 81 266 123 503 26 144 26 676 0 815 -44 239 -86 410 -123 498 -8 18 -14 39 -14 47 0 7 -6 26 -14 42 -8 15 -22 48 -32 73 -18 49 -70 166 -84 190 -5 8 -19 35 -31 60 -83 166 -261 422 -399 574 -97 107 -248 249 -330 311 -36 27 -71 55 -78 62 -35 34 -252 174 -344 222 -42 22 -85 44 -95 50 -38 20 -150 70 -193 86 -25 9 -57 23 -72 31 -14 8 -35 14 -46 14 -12 0 -23 4 -27 9 -3 5 -20 12 -38 16 -17 4 -52 13 -77 20 -120 36 -240 66 -310 76 -30 4 -77 12 -105 18 -66 14 -549 22 -692 11z m692 -1099 c80 -31 105 -47 166 -105 66 -64 91 -108 114 -202 14 -58 15 -79 5 -124 -6 -30 -14 -67 -17 -82 -3 -15 -11 -33 -19 -39 -8 -6 -14 -18 -14 -25 0 -19 -124 -141 -152 -149 -13 -4 -30 -13 -38 -20 -27 -21 -167 -48 -221 -42 -180 22 -323 129 -382 287 -22 60 -23 186 -1 237 39 88 52 108 107 159 100 93 172 122 307 123 71 1 108 -4 145 -18z m-365 -1174 c36 -8 93 -27 125 -43 66 -32 161 -121 186 -174 47 -100 49 -108 49 -245 0 -132 -13 -224 -47 -345 -9 -30 -22 -75 -29 -100 -6 -25 -19 -67 -27 -95 -8 -27 -22 -79 -32 -115 -10 -36 -23 -85 -30 -110 -87 -297 -106 -388 -107 -511 0 -121 10 -152 69 -196 36 -27 39 -28 167 -28 111 0 141 4 195 23 80 29 91 22 72 -46 -8 -26 -16 -62 -19 -79 -4 -33 -29 -52 -92 -73 -14 -5 -50 -18 -80 -30 -30 -12 -66 -25 -80 -30 -14 -5 -50 -18 -80 -29 -144 -56 -360 -71 -512 -38 -187 42 -324 164 -364 327 -30 122 -5 339 66 575 12 39 25 86 30 105 4 19 12 49 18 65 5 17 18 59 27 95 10 36 23 85 30 110 64 219 105 405 105 479 0 62 -30 139 -66 171 -26 22 -46 30 -100 35 -84 9 -218 -1 -253 -20 -15 -7 -41 -15 -57 -17 -27 -3 -29 -1 -28 32 1 19 7 59 15 89 13 49 18 55 59 74 25 11 53 24 63 29 47 23 265 94 342 110 28 5 68 14 90 18 54 12 215 4 295 -13z"/> </g> </svg> 