<?xml version="1.0" standalone="no"?>
<!DOCTYPE svg PUBLIC "-//W3C//DTD SVG 20010904//EN"
 "http://www.w3.org/TR/2001/REC-SVG-20010904/DTD/svg10.dtd">
<svg version="1.0" xmlns="http://www.w3.org/2000/svg"
 width="624.000000pt" height="624.000000pt" viewBox="0 0 624.000000 624.000000"
 preserveAspectRatio="xMidYMid meet">
<metadata>
Created by potrace 1.10, written by Peter Selinger 2001-2011
</metadata>
<g transform="translate(0.000000,624.000000) scale(0.100000,-0.100000)"
fill="#000000" stroke="none">
<path d="M870 6226 c0 -8 -13 -18 -28 -24 -40 -14 -88 -65 -112 -119 -20 -45
-20 -56 -20 -3064 l0 -3019 240 0 240 0 2 1313 3 1312 270 5 c235 4 275 7 310
24 25 11 138 118 318 299 230 232 281 279 294 271 19 -12 18 -11 73 -129 52
-111 97 -207 165 -350 29 -60 69 -146 90 -190 98 -209 127 -271 136 -287 12
-23 11 -44 0 -66 -6 -9 -70 -141 -144 -292 -74 -151 -195 -399 -269 -550 -185
-376 -355 -722 -499 -1017 -66 -137 -132 -269 -144 -295 l-24 -48 223 0 222 0
40 34 c21 18 55 58 75 87 64 94 119 180 119 185 0 2 19 32 43 67 24 34 46 69
50 77 4 8 29 49 56 90 42 63 106 163 146 229 6 9 29 44 53 79 23 35 42 65 42
68 0 2 19 32 43 67 24 34 47 69 51 77 12 26 146 234 187 292 10 15 19 30 19
32 0 3 20 35 45 72 25 36 45 67 45 70 0 2 20 33 45 70 25 36 45 67 45 69 0 9
79 122 94 134 13 11 17 10 22 -5 6 -20 14 -39 64 -149 17 -38 37 -83 44 -100
8 -16 20 -46 29 -65 9 -19 28 -62 42 -95 110 -249 125 -277 183 -337 103 -107
21 -99 922 -96 l785 3 3 140 c3 159 -6 192 -67 258 -70 75 -42 71 -666 77
l-559 5 -12 45 c-14 55 -34 150 -44 210 -4 25 -12 65 -18 90 -6 25 -19 81 -28
125 -35 171 -46 222 -56 265 -6 25 -14 68 -18 97 -5 28 -11 56 -13 61 -3 4
-13 50 -21 102 -14 85 -24 112 -116 294 -56 111 -107 210 -112 221 -6 11 -15
27 -19 35 -96 189 -251 493 -273 536 -17 34 -25 59 -19 65 5 5 104 8 233 7
l224 -3 213 -425 c119 -239 225 -439 242 -457 146 -154 411 -44 411 171 0 47
-21 94 -261 573 -160 323 -272 534 -290 553 -17 16 -51 39 -76 50 -44 19 -64
20 -697 20 -378 -1 -670 -5 -696 -11 -25 -5 -61 -12 -80 -15 -82 -13 -231 -82
-320 -147 -30 -23 -223 -209 -429 -414 l-373 -373 -187 2 -186 3 0 1315 0
1315 1915 0 1915 0 5 -2035 5 -2035 235 0 235 0 3 2181 c2 2171 2 2182 -18
2227 -24 54 -72 105 -112 119 -15 6 -28 16 -28 24 0 12 -325 14 -2240 14
-1915 0 -2240 -2 -2240 -14z"/>
<path d="M2135 5255 c-22 -8 -46 -15 -53 -15 -7 0 -40 -13 -72 -29 -214 -106
-341 -310 -340 -546 1 -52 7 -107 15 -130 8 -22 15 -45 15 -51 0 -26 47 -114
95 -179 229 -311 721 -311 950 0 37 49 53 75 61 95 3 8 10 23 15 34 6 10 19
50 30 90 64 243 -39 510 -251 647 -59 38 -104 58 -189 83 -67 20 -221 21 -276
1z"/>
<path d="M5037 704 c-4 -4 -7 -164 -7 -356 l0 -348 240 0 240 0 -2 353 -3 352
-231 3 c-127 1 -233 -1 -237 -4z"/>
</g>
</svg>
