 <svg  version="1.0" xmlns="http://www.w3.org/2000/svg"  width="624.000000pt" height="624.000000pt" viewBox="0 0 624.000000 624.000000"  preserveAspectRatio="xMidYMid meet">  <g transform="translate(0.000000,624.000000) scale(0.100000,-0.100000)" fill="#1a3a61" stroke="none"> <path d="M3077 6168 c-8 -13 -23 -32 -34 -43 -10 -11 -48 -58 -83 -105 -35 -47 -66 -87 -69 -90 -4 -3 -19 -23 -36 -45 -16 -22 -32 -42 -35 -45 -9 -7 -207 -276 -300 -406 -41 -58 -100 -140 -130 -182 -63 -87 -73 -102 -255 -374 -73 -108 -135 -203 -139 -210 -3 -7 -14 -25 -24 -40 -9 -15 -37 -59 -62 -98 -25 -39 -53 -83 -62 -98 -10 -15 -22 -36 -28 -47 -6 -11 -19 -33 -30 -50 -11 -16 -24 -39 -30 -50 -5 -11 -14 -27 -20 -35 -41 -62 -187 -325 -280 -505 -23 -44 -45 -87 -50 -95 -26 -45 -168 -357 -205 -450 -9 -25 -23 -58 -30 -75 -20 -46 -43 -112 -86 -240 -149 -451 -175 -780 -93 -1175 8 -41 20 -91 26 -110 6 -19 15 -51 19 -70 4 -19 17 -60 29 -90 12 -30 25 -66 29 -80 10 -30 58 -138 72 -160 5 -8 11 -21 14 -27 13 -33 17 -40 35 -68 11 -16 23 -37 27 -45 12 -28 96 -155 142 -215 63 -84 81 -104 210 -233 141 -140 216 -198 426 -329 11 -7 43 -24 70 -38 28 -14 57 -30 65 -34 29 -16 134 -64 159 -72 14 -4 51 -17 81 -29 30 -12 71 -25 90 -29 19 -4 51 -13 70 -18 148 -46 260 -58 550 -58 243 0 368 10 470 36 194 49 385 117 480 170 8 4 38 20 65 34 28 14 59 31 70 38 239 149 366 255 550 457 63 69 176 223 198 270 4 8 16 29 27 45 10 17 31 53 45 80 14 28 30 57 35 65 14 24 62 132 71 160 4 14 17 50 29 80 12 30 25 71 29 90 4 19 13 51 19 70 39 126 72 367 72 536 0 159 -31 378 -76 539 -51 180 -111 361 -149 450 -7 17 -21 50 -30 75 -17 42 -40 94 -87 200 -32 72 -109 234 -118 250 -5 8 -27 51 -50 95 -93 180 -239 443 -280 505 -6 8 -15 24 -20 35 -6 11 -19 34 -30 50 -11 17 -24 39 -30 50 -6 11 -18 32 -28 47 -9 15 -37 59 -62 98 -25 39 -53 83 -62 98 -10 15 -21 33 -24 40 -7 13 -251 380 -295 443 -13 19 -27 36 -31 37 -5 2 -8 8 -8 13 0 5 -26 45 -57 88 -32 44 -92 127 -133 185 -93 130 -291 399 -300 406 -3 3 -19 23 -35 45 -17 22 -32 42 -36 45 -3 3 -34 43 -69 90 -35 47 -73 94 -83 105 -11 11 -26 30 -34 43 -9 12 -23 22 -33 22 -10 0 -24 -10 -33 -22z m-193 -1124 c-19 -81 -35 -146 -59 -229 -9 -33 -23 -82 -30 -110 -33 -121 -48 -172 -61 -203 -8 -18 -14 -41 -14 -52 0 -11 -6 -34 -14 -52 -7 -18 -21 -60 -31 -93 -9 -33 -23 -78 -30 -100 -25 -82 -43 -142 -60 -200 -10 -33 -22 -71 -28 -85 -5 -14 -13 -41 -17 -60 -5 -19 -13 -48 -18 -65 -10 -29 -20 -64 -56 -190 -10 -33 -22 -76 -28 -95 -6 -19 -15 -51 -19 -70 -4 -19 -12 -48 -17 -65 -6 -16 -18 -59 -27 -95 -9 -36 -22 -87 -30 -115 -21 -81 -37 -147 -45 -190 -4 -22 -12 -60 -18 -85 -29 -122 -61 -299 -88 -485 -25 -172 -25 -571 0 -710 47 -268 86 -455 120 -580 8 -27 21 -77 30 -110 30 -109 48 -170 62 -203 17 -41 18 -72 2 -72 -7 1 -35 14 -63 30 -27 16 -57 33 -65 37 -60 28 -258 196 -350 299 -36 40 -140 180 -140 188 0 3 -11 22 -25 42 -14 21 -41 72 -61 113 -20 42 -42 88 -50 103 -8 14 -14 33 -14 41 0 9 -6 28 -14 44 -24 48 -67 216 -88 338 -17 106 -17 429 0 515 13 63 21 91 57 215 57 196 197 502 391 853 16 29 34 61 39 70 6 9 35 60 65 112 30 52 60 104 67 115 7 11 16 27 20 35 4 8 39 69 78 135 39 66 74 127 78 135 4 8 16 29 27 45 11 17 24 39 30 50 6 11 19 34 30 50 11 17 24 39 30 50 6 11 20 36 31 55 12 19 32 55 46 80 13 25 33 59 43 75 10 17 30 50 43 75 14 25 34 61 45 80 12 19 33 58 48 85 14 28 41 77 59 110 18 33 43 80 55 105 12 25 26 52 31 60 5 8 14 26 19 39 7 16 14 21 21 14 6 -6 4 -33 -7 -79z"/> </g> </svg> 